<svg xmlns="http://www.w3.org/2000/svg" width="180" height="180" viewBox="0 0 512 512">
  <defs>
    <linearGradient id="bg" x1="0" y1="0" x2="1" y2="1">
      <stop offset="0%" stop-color="#1e1b4b"/>
      <stop offset="100%" stop-color="#0f172a"/>
    </linearGradient>
    <linearGradient id="glow" x1="0" y1="0" x2="0" y2="1">
      <stop offset="0%" stop-color="#a5b4fc"/>
      <stop offset="100%" stop-color="#6366f1"/>
    </linearGradient>
    <linearGradient id="win" x1="0" y1="0" x2="0" y2="1">
      <stop offset="0%" stop-color="#fbbf24" stop-opacity="0.9"/>
      <stop offset="100%" stop-color="#f59e0b" stop-opacity="0.4"/>
    </linearGradient>
  </defs>

  <rect width="512" height="512" fill="url(#bg)"/>

  <g>
    <rect x="120" y="252" width="272" height="176" rx="8" fill="#1e1b4b" stroke="url(#glow)" stroke-width="4"/>
    <path d="M96 260 L256 130 L416 260" fill="#1e1b4b" stroke="url(#glow)" stroke-width="5" stroke-linecap="round" stroke-linejoin="round"/>
    <path d="M120 252 L256 148 L392 252" fill="#131136"/>
    <rect x="340" y="162" width="28" height="60" rx="4" fill="#1e1b4b" stroke="url(#glow)" stroke-width="3"/>
    <rect x="220" y="304" width="72" height="124" rx="8" fill="#818cf8" opacity="0.15" stroke="#818cf8" stroke-width="3"/>
    <circle cx="278" cy="370" r="6" fill="#818cf8" opacity="0.8"/>
    <rect x="140" y="284" width="60" height="50" rx="6" fill="url(#win)"/>
    <line x1="170" y1="284" x2="170" y2="334" stroke="#1e1b4b" stroke-width="3" opacity="0.4"/>
    <line x1="140" y1="309" x2="200" y2="309" stroke="#1e1b4b" stroke-width="3" opacity="0.4"/>
    <rect x="312" y="284" width="60" height="50" rx="6" fill="url(#win)"/>
    <line x1="342" y1="284" x2="342" y2="334" stroke="#1e1b4b" stroke-width="3" opacity="0.4"/>
    <line x1="312" y1="309" x2="372" y2="309" stroke="#1e1b4b" stroke-width="3" opacity="0.4"/>
  </g>

  <g transform="translate(256, 100)" stroke="#818cf8" fill="none" stroke-width="4" stroke-linecap="round">
    <path d="M-32 0 a45 45 0 0 1 64 0" opacity="0.25"/>
    <path d="M-22 10 a30 30 0 0 1 44 0" opacity="0.5"/>
    <path d="M-12 20 a16 16 0 0 1 24 0" opacity="0.8"/>
    <circle cx="0" cy="28" r="5" fill="#818cf8"/>
  </g>
</svg>
